<svg xmlns="http://www.w3.org/2000/svg" viewBox="0 0 92 75"><defs><style>.cls-1{fill:#242424;}.cls-2{fill:#ab2e1f;}</style></defs><g id="Layer_2" data-name="Layer 2"><g id="Layer_1-2" data-name="Layer 1"><polygon class="cls-1" points="49.64 0 47.88 2.43 47.88 15.78 43.87 15.78 43.87 2.43 43.87 2.43 42.23 0 49.64 0"/><path class="cls-2" d="M70.92,52c-3.09,8.49-9.56,14.42-15.71,14.42a9.27,9.27,0,0,1-3.58-.72,11.14,11.14,0,0,1-5.91-6.39,11.14,11.14,0,0,1-5.91,6.39,9.27,9.27,0,0,1-3.58.72c-6.15,0-12.62-5.93-15.7-14.42C16.74,41.6,19.23,30.8,26.08,28a9.21,9.21,0,0,1,3.57-.71c6.16,0,12.62,5.93,15.71,14.41.12.36.25.72.36,1.09.11-.37.24-.73.37-1.09,3.08-8.48,9.54-14.41,15.7-14.41a9.26,9.26,0,0,1,3.58.71c3.41,1.42,5.85,4.79,6.85,9.47A26.91,26.91,0,0,1,70.92,52Z"/><path class="cls-1" d="M68.5,51.64C65.25,60.58,58,65.9,52.35,63.53c-3.82-1.59-6-6.26-6-11.86A25.17,25.17,0,0,1,48,43.08c3.25-8.93,10.48-14.26,16.16-11.9S71.75,42.71,68.5,51.64Z"/><path class="cls-1" d="M43.82,43.08a25.17,25.17,0,0,1,1.57,8.59c0,5.6-2.13,10.27-6,11.86-5.68,2.37-12.91-3-16.16-11.89S22,33.55,27.67,31.18,40.58,34.15,43.82,43.08Z"/><polygon class="cls-1" points="55.41 4.59 55.41 12.53 53.13 10.65 38.73 10.65 38.73 10.64 36.46 12.4 36.46 4.46 38.73 6.35 53.13 6.35 55.41 4.59"/><rect class="cls-1" x="12.5" y="57.24" width="66.44" height="11.84" rx="3.7"/><rect class="cls-1" x="17.01" y="63.16" width="57.43" height="11.84" rx="3.7"/><path class="cls-1" d="M79.26,31.54c-1.86-6.4-5.76-11.14-11-13.31A16.16,16.16,0,0,0,62,17a18.82,18.82,0,0,0-8.53,2.17,21.18,21.18,0,0,0-3,1.8,5.61,5.61,0,0,1,.36,2,5.3,5.3,0,0,1-.21,1.51,20.06,20.06,0,0,1,3.56-2.26,14.55,14.55,0,0,1,12.29-.72c9,3.77,12.78,16.7,8.35,28.86s-15.35,19-24.38,15.21A13.84,13.84,0,0,1,46,62.46a13.91,13.91,0,0,1-4.55,3.07c-9,3.78-20-3-24.39-15.21s-.69-25.09,8.36-28.86a14.53,14.53,0,0,1,12.28.72,19.71,19.71,0,0,1,3.56,2.26A5.68,5.68,0,0,1,41,22.93a5.4,5.4,0,0,1,.37-2,21.28,21.28,0,0,0-3-1.8A18.78,18.78,0,0,0,29.88,17a16.19,16.19,0,0,0-6.26,1.25c-5.21,2.17-9.12,6.91-11,13.31a32.58,32.58,0,0,0,1,20C17.64,62.57,26.53,70,35.74,70A16.24,16.24,0,0,0,42,68.76,16.7,16.7,0,0,0,46,66.43a16.62,16.62,0,0,0,3.95,2.33A16.23,16.23,0,0,0,56.16,70c9.21,0,18.1-7.44,22.13-18.51A32.51,32.51,0,0,0,79.26,31.54Z"/><path class="cls-1" d="M54.25,22.18a9.19,9.19,0,0,0-.76-3,8.1,8.1,0,0,0-15.08,0,9.19,9.19,0,0,0-.76,3c0,.24,0,.5,0,.75,0,4.93,3.73,8.92,8.33,8.92s8.33-4,8.33-8.92C54.28,22.68,54.27,22.42,54.25,22.18ZM46,28.23a5,5,0,0,1-4.74-3.79A5.68,5.68,0,0,1,41,22.93a5.4,5.4,0,0,1,.37-2,4.83,4.83,0,0,1,9.17,0,5.61,5.61,0,0,1,.36,2,5.3,5.3,0,0,1-.21,1.51A5,5,0,0,1,46,28.23Z"/><path class="cls-1" d="M40.1,48.54l.56.09a34.22,34.22,0,0,0,9.48.18l2.27-.27v11H40.1Z"/><ellipse class="cls-1" cx="25.54" cy="9.54" rx="4.32" ry="4.62"/><ellipse class="cls-1" cx="13.77" cy="14.81" rx="4.32" ry="4.62"/><ellipse class="cls-1" cx="6.25" cy="27.05" rx="4.32" ry="4.62"/><ellipse class="cls-1" cx="4.32" cy="40.98" rx="4.32" ry="4.62"/><ellipse class="cls-1" cx="6.55" cy="53.65" rx="4.32" ry="4.62"/><ellipse class="cls-1" cx="67.27" cy="9.23" rx="4.32" ry="4.62"/><ellipse class="cls-1" cx="78.91" cy="14.85" rx="4.32" ry="4.62"/><ellipse class="cls-1" cx="86.11" cy="27.3" rx="4.32" ry="4.62"/><ellipse class="cls-1" cx="87.68" cy="41.29" rx="4.32" ry="4.62"/><ellipse class="cls-1" cx="85.12" cy="53.88" rx="4.32" ry="4.62"/></g></g></svg>