<svg xmlns="http://www.w3.org/2000/svg" viewBox="0 0 80 80"><defs><style>.cls-1{fill:#242424;}</style></defs><g id="Layer_2" data-name="Layer 2"><g id="Layer_1-2" data-name="Layer 1"><path class="cls-1" d="M25.36,33c-8.4-9.43-6.39-21.3,1-27.9A20.77,20.77,0,0,1,53.47,5c6.69,5.83,10.26,17.47,1.06,28.2,5.94-1.51,11.35-1,16.32,2A18.33,18.33,0,0,1,79.78,48.4C81.16,57,75.88,65.47,67.2,68.64A18.23,18.23,0,0,1,53,68.19c-4.53-2-7.92-5.17-9.46-9.87-1,.25-.72.84-.72,1.24,0,6.68,2,12.6,7.27,17.2.8.69,2.26,1.34,1.87,2.47s-2,.59-3,.6c-6.43.06-12.86,0-19.29,0-.6,0-1.35.23-1.68-.46s.32-1.24.82-1.64a21,21,0,0,0,7.74-12.28,15.53,15.53,0,0,0,.22-7.19c-2.68,6.34-7.57,10-14.3,11.27A18.23,18.23,0,0,1,10,67.39c-8.24-4.46-11.95-13.6-9-22.2C4.19,35.72,12.53,31.52,25.36,33Z"/></g></g></svg>