<svg xmlns="http://www.w3.org/2000/svg" viewBox="0 0 80 80"><defs><style>.cls-1{fill:#242424;}</style></defs><g id="Layer_2" data-name="Layer 2"><g id="Layer_1-2" data-name="Layer 1"><path class="cls-1" d="M36.64,57.67a1.46,1.46,0,0,0-.88,1.09C32,69.09,14.93,73.51,5.1,62.51c-6.38-7.13-6.28-15.06-2.42-23.09C6.3,31.89,12.35,26.06,19,20.78a117.25,117.25,0,0,0,20-20c.83-1.06,1.21-1.09,2,0a122.71,122.71,0,0,0,21.15,21c6.47,5.16,12,11,15.56,18.3,4.42,9.1,2.1,19.32-5.53,25-9.86,7.39-24.18,3.26-27.82-6.14-.17-.43-.26-.95-.79-1.21-.71.12-.49.66-.49,1,0,6.91,2,13,7.69,17.83.89.75,2.65,1.42,2,2.79-.51,1.1-2.14.45-3.24.46-6.82.06-13.63,0-20.45,0-.72,0-1.73.36-2.06-.57s.54-1.32,1.12-1.77a21.54,21.54,0,0,0,8.72-17.23A4.82,4.82,0,0,0,36.64,57.67Z"/></g></g></svg>