<svg xmlns="http://www.w3.org/2000/svg" viewBox="0 0 78 85"><defs><style>.cls-1{fill:#242424;}.cls-2{fill:#fff;}.cls-3{fill:#ab2e1f;}</style></defs><g id="Layer_2" data-name="Layer 2"><g id="Layer_1-2" data-name="Layer 1"><path class="cls-1" d="M70.56,83.76l-7.63-7.41a.85.85,0,0,1,0-1.23l4.9-4.75a.91.91,0,0,1,1.26,0l7.63,7.41a4.13,4.13,0,0,1,0,6h0A4.45,4.45,0,0,1,70.56,83.76Z"/><path class="cls-1" d="M57.43,83.76l7.63-7.41a.85.85,0,0,0,0-1.23l-4.9-4.75a.91.91,0,0,0-1.26,0l-7.63,7.41a4.14,4.14,0,0,0,0,6h0A4.45,4.45,0,0,0,57.43,83.76Z"/><path class="cls-1" d="M57.23,10.7a.46.46,0,0,0-.18-.13.73.73,0,0,0-.41-.12c-1.16,0-3.41-.1-6.4,0-2.25.05-4.9.18-7.84.42h0c-2,.17-4.1.39-6.3.7h0a96.8,96.8,0,0,0-10,1.87l.6,2.12,1.06,3.77L29.1,24l1.07,3.77,1.36,4.81L32.6,36.3l1.49,5.28.48,1.71.89,2,1,2.17c1.57-.47,3.14-.9,4.68-1.3,1.7-.45,3.37-.83,5-1.15,1.35-.27,2.65-.48,3.9-.62a28,28,0,0,1,5.1-.19c.47,0,.93.08,1.37.15a.89.89,0,0,0,1-.86V11.31A.85.85,0,0,0,57.23,10.7Zm-28.95,36c0-.07,0-.15-.05-.22-.2-1-.44-2.06-.69-3.26,0-.18-.08-.36-.11-.54s0-.13,0-.18l-.12-.57c-.26-1.34-.58-2.91-.93-4.6-.13-.6-.25-1.23-.39-1.86s-.25-1.22-.37-1.84a.3.3,0,0,1,0-.1c-.34-1.61-.68-3.25-1-4.89-.27-1.3-.54-2.57-.8-3.81-.17-.77-.32-1.53-.48-2.25s-.35-1.67-.51-2.44c-.3-1.45-.58-2.75-.81-3.81,0-.16-.06-.32-.09-.47s-.06-.25-.08-.37-.06-.23-.08-.34l0-.12-.06-.36a2,2,0,0,1,.26-.09l-.39-.87-.14-.33a5.16,5.16,0,0,0,.14.7c0,.16.07.36.12.59a61.9,61.9,0,0,0-7.8,2.94l-.19.09h0c-.77.36-1.52.73-2.26,1.12S9.76,19.69,9,20.15s-1.59,1-2.35,1.55a1.94,1.94,0,0,0-.27.21,1.25,1.25,0,0,0-.19.15,3.75,3.75,0,0,0-.45.44,2.26,2.26,0,0,0-.25.29h0a5.23,5.23,0,0,0-.94,1.75,1.55,1.55,0,0,0-.07.23,4.86,4.86,0,0,0,.07,2.67c0,.16.1.33.16.51.32,1.06.7,2.3,1.09,3.64.06.23.12.45.19.69.12.41.24.83.36,1.27.27,1,.53,2,.79,3,.31,1.23.61,2.48.89,3.72.07.31.14.62.2.93l.15.75c.08.37.15.75.21,1.11s.17.9.24,1.35.13.87.19,1.29c.13,1,.22,2,.25,2.84,0,.26,0,.51,0,.75v.25c0,.27,0,.53,0,.77a3,3,0,0,0,2.36,3.07,10.48,10.48,0,0,0,4,0,54.53,54.53,0,0,0,6.9-1.63c2-.58,4.21-1.26,6.48-2C28.79,49.09,28.56,48,28.28,46.69Z"/><path class="cls-1" d="M64.49,0h-.92a4.12,4.12,0,0,0-4.18,4.06V6.84A.88.88,0,0,0,58.55,6l-3.07-.19c-.06,0-1.66-.1-4.31-.1C41.86,5.68,18.62,6.9,3.83,18.2A9.46,9.46,0,0,0,.37,28.4C3.36,38.66,5,47,4.74,50.59A7.12,7.12,0,0,0,10,57.89a10,10,0,0,0,2.8.37c4.12,0,10-2,16.88-4.29,7.53-2.53,16.06-5.39,21.89-5.39a11.44,11.44,0,0,1,2.67.27l4.07,1A.89.89,0,0,0,59.39,49V73.2a4.13,4.13,0,0,0,4.18,4.08h.92a4.14,4.14,0,0,0,4.19-4.08V4.06A4.12,4.12,0,0,0,64.49,0Zm-7,43.5a.89.89,0,0,1-1,.86c-.44-.07-.9-.11-1.37-.15a28,28,0,0,0-5.1.19c-1.25.14-2.55.35-3.9.62-1.62.32-3.29.7-5,1.15-1.54.4-3.11.83-4.68,1.3-2.54.73-5.06,1.53-7.49,2.3-2.27.7-4.45,1.38-6.48,2a54.53,54.53,0,0,1-6.9,1.63,10.48,10.48,0,0,1-4,0A3,3,0,0,1,9.23,50.3c0-.24,0-.5,0-.77v-.25c0-.24,0-.49,0-.75,0-.86-.12-1.82-.25-2.84-.06-.42-.13-.85-.19-1.29s-.15-.9-.24-1.35-.13-.74-.21-1.11l-.15-.75c-.06-.31-.13-.62-.2-.93-.28-1.24-.58-2.49-.89-3.72-.26-1-.52-2-.79-3-.12-.44-.24-.86-.36-1.27-.07-.24-.13-.46-.19-.69C5.39,30.25,5,29,4.69,28c-.06-.18-.11-.35-.16-.51a4.86,4.86,0,0,1-.07-2.67,1.55,1.55,0,0,1,.07-.23,5.23,5.23,0,0,1,.94-1.75h0a2.26,2.26,0,0,1,.25-.29,3.75,3.75,0,0,1,.45-.44,1.25,1.25,0,0,1,.19-.15,1.94,1.94,0,0,1,.27-.21c.76-.55,1.55-1.05,2.35-1.55s1.55-.91,2.35-1.34,1.49-.76,2.26-1.12h0l.19-.09a61.9,61.9,0,0,1,7.8-2.94c-.05-.23-.09-.43-.12-.59a5.16,5.16,0,0,1-.14-.7l.14.33.39.87c1.4-.43,2.82-.81,4.25-1.15a96.8,96.8,0,0,1,10-1.87h0c2.2-.31,4.31-.53,6.3-.7h0c2.94-.24,5.59-.37,7.84-.42,3-.08,5.24,0,6.4,0a.73.73,0,0,1,.41.12.46.46,0,0,1,.18.13.85.85,0,0,1,.26.61Z"/><path class="cls-2" d="M28.94,49.77c-2.27.7-4.45,1.38-6.48,2a54.53,54.53,0,0,1-6.9,1.63,10.48,10.48,0,0,1-4,0A3,3,0,0,1,9.23,50.3c0-.24,0-.5,0-.77v-.25c0-.24,0-.49,0-.75,0-.86-.12-1.82-.25-2.84-.06-.42-.13-.85-.19-1.29s-.15-.89-.24-1.35-.13-.74-.21-1.11l-.15-.75c-.06-.31-.13-.62-.2-.93-.28-1.24-.58-2.49-.89-3.72-.26-1-.52-2-.79-3-.12-.44-.24-.86-.36-1.27-.07-.24-.13-.46-.19-.69C5.39,30.25,5,29,4.69,28c-.06-.18-.11-.35-.16-.51a4.86,4.86,0,0,1-.07-2.67,1.55,1.55,0,0,1,.07-.23,5.23,5.23,0,0,1,.94-1.75h0a2.26,2.26,0,0,1,.25-.29,3.75,3.75,0,0,1,.45-.44,1.25,1.25,0,0,1,.19-.15,1.94,1.94,0,0,1,.27-.21c.76-.55,1.55-1.05,2.35-1.55s1.55-.91,2.35-1.34,1.49-.76,2.26-1.12h0l.19-.09a61.9,61.9,0,0,1,7.8-2.94h0l.06.36,0,.12.06.28s0,0,0,.06,0,.24.08.37.07.31.09.47c.23,1.06.51,2.36.81,3.81.16.77.34,1.59.51,2.44s.31,1.48.48,2.25c.26,1.24.53,2.51.8,3.81.34,1.64.68,3.28,1,4.89a.3.3,0,0,0,0,.1c.12.62.25,1.23.37,1.84s.26,1.26.39,1.86c.35,1.69.67,3.26.93,4.6l.12.57s0,.12,0,.18.07.36.11.54c.25,1.2.49,2.3.69,3.26,0,.07,0,.15.05.22C28.56,48,28.79,49.09,28.94,49.77Z"/><path class="cls-2" d="M57.49,11.31V43.5a.89.89,0,0,1-1,.86c-.44-.07-.9-.11-1.37-.15a28,28,0,0,0-5.1.19c-1.25.14-2.55.35-3.9.62-1.62.32-3.29.7-5,1.15-1.54.4-3.11.83-4.68,1.3l-1-2.17-.89-2-.48-1.71L32.6,36.3l-1.07-3.77-1.36-4.81L29.1,24l-1.32-4.64-1.06-3.77-.6-2.12a96.8,96.8,0,0,1,10-1.87h0c2.2-.31,4.31-.53,6.3-.7h0c2.94-.24,5.59-.37,7.84-.42,3-.08,5.24,0,6.4,0a.73.73,0,0,1,.41.12.46.46,0,0,1,.18.13A.85.85,0,0,1,57.49,11.31Z"/><path class="cls-3" d="M22.46,51.73a54.53,54.53,0,0,1-6.9,1.63c-.07-.57-.41-2.3-.89-4.69h0c-.22-1.13-.48-2.41-.76-3.78-.35-1.69-.73-3.51-1.11-5.38-.27-1.25-.53-2.52-.79-3.77-.36-1.69-.71-3.34-1-4.92-.29-1.33-.55-2.6-.8-3.77-.4-1.91-.74-3.54-1-4.73-.13-.66-.24-1.17-.32-1.52A.88.88,0,0,1,9,20.15c.77-.46,1.55-.91,2.35-1.34s1.49-.76,2.26-1.12h0l.19-.09a.14.14,0,0,0,0,.06s0,0,0,.06l.94,3.7L16,26.1l1,3.76,1.23,4.87,1,3.76,1.34,5.32.95,3.77Z"/><path class="cls-3" d="M21.87,14.57a2,2,0,0,0-.26.09c-.05-.23-.09-.43-.13-.59a.92.92,0,0,1,0-.37Z"/><path class="cls-3" d="M28.28,46.69c-.09,0-.13-.06-.12-.09s-.21-1.38-.62-3.39C27.81,44.5,28.06,45.68,28.28,46.69Z"/><path class="cls-3" d="M57.23,10.7,57,14.61l-.3,4.81-.26,4.08-.32,5-.26,4.06-.35,5.5-.25,4-.13,2.1a28,28,0,0,0-5.1.19c0-.42,0-.91,0-1.45,0-1.11,0-2.47.05-4s0-3.52.06-5.48c0-1.3,0-2.64,0-4,0-1.67,0-3.35.05-5,0-1.37,0-2.71,0-4,0-1.72,0-3.35,0-4.81s0-2.91,0-4c0-.48,0-.91,0-1.26,3-.08,5.24,0,6.4,0a.73.73,0,0,1,.41.12A.46.46,0,0,1,57.23,10.7Z"/><path class="cls-3" d="M46.1,45c-1.62.32-3.29.7-5,1.15-.09-.5-.18-1.09-.29-1.74-.18-1.11-.39-2.42-.62-3.86-.28-1.65-.57-3.47-.88-5.36-.2-1.26-.41-2.56-.63-3.85-.27-1.64-.54-3.29-.8-4.9-.22-1.32-.43-2.62-.64-3.86-.29-1.69-.55-3.29-.79-4.7s-.49-2.84-.67-3.84c-.23-1.28-.38-2.06-.42-2.12s.23-.22.71-.39h0c2.2-.31,4.31-.53,6.3-.7h0l0,.17.21,1.91.42,3.9.51,4.74L44,25.48l.53,4.92L45,34.3l.58,5.4L46,43.6Z"/><path class="cls-3" d="M36.43,47.47c-2.54.73-5.06,1.53-7.49,2.3-.15-.68-.38-1.73-.66-3.08,0-.07,0-.15-.05-.22-.2-1-.44-2.06-.69-3.26,0-.18-.08-.36-.11-.54s0-.13,0-.18l-.12-.57c-.26-1.34-.58-2.91-.93-4.6-.13-.6-.25-1.23-.39-1.86s-.25-1.22-.37-1.84a.3.3,0,0,1,0-.1c-.34-1.61-.68-3.25-1-4.89-.27-1.3-.54-2.57-.8-3.81-.17-.77-.32-1.53-.48-2.25s-.35-1.67-.51-2.44c-.3-1.45-.58-2.75-.81-3.81,0-.16-.06-.32-.09-.47s-.06-.25-.08-.37,0,0,0-.06l-.06-.28,0-.12-.06-.36a2,2,0,0,1,.26-.09c1.4-.43,2.82-.81,4.25-1.15l.6,2.12,1.06,3.77L29.1,24l1.07,3.77,1.36,4.81L32.6,36.3l1.49,5.28.48,1.71.89,2Z"/><path class="cls-3" d="M21.61,14.66l.06.36c0-.13,0-.25-.07-.36s-.09-.43-.12-.59a5.16,5.16,0,0,1-.14-.7l.14.33.39.87A2,2,0,0,0,21.61,14.66Z"/><path class="cls-3" d="M27.28,41.92c-.3-1.43-.63-3-1-4.59-.27-1.24-.53-2.52-.79-3.81-.35-1.63-.69-3.27-1-4.88-.26-1.3-.53-2.58-.79-3.81-.34-1.68-.68-3.27-1-4.7s-.57-2.75-.79-3.8l-.19-.91s0,0,0,.06,0,.24.08.37.07.31.09.47c.23,1.06.51,2.36.81,3.81.16.77.34,1.59.51,2.44s.31,1.48.48,2.25c.26,1.24.53,2.51.8,3.81.34,1.64.68,3.28,1,4.89a.3.3,0,0,0,0,.1c.12.62.25,1.23.37,1.84s.26,1.26.39,1.86C26.7,39,27,40.58,27.28,41.92Z"/><path class="cls-3" d="M57.49,37.73v4l-2.26.36L50,43,46,43.6l-5.13.83-5.36.87-7.23,1.17h-.08l-6.75,1.1-6.73,1.09h0l-5.39.86v-.25c0-.24,0-.49,0-.75,0-.86-.12-1.82-.25-2.84l4.9-.8,6.55-1.08,7-1.14,6.66-1.09,6.11-1,5.33-.87L50.06,39l5.42-.89Z"/><path class="cls-3" d="M57.49,28.27v4l-1.66.26-5.71.91L45,34.3l-5.63.91L32.6,36.3l-6.25,1h0l-7.21,1.16-6.32,1c-2.2.36-3.87.62-4.78.75-.28-1.24-.58-2.49-.89-3.72l4.88-.8,6.15-1,7.38-1.21h0l6-1,7.16-1.17,5.83-1,5.63-.92,5.94-1Z"/><path class="cls-3" d="M57.49,19.28v4l-1.08.17-6.21,1-6.21,1-6.1,1-7.72,1.26-5.62.91H24.5l-7.58,1.22-6,1c-2.16.35-3.8.6-4.67.73a3.12,3.12,0,0,1-.52,0C5.39,30.25,5,29,4.69,28l5.48-.9L16,26.1l7.75-1.27h0L29.1,24l8.15-1.35,6.32-1,6.65-1.09,6.45-1.06Z"/><path class="cls-3" d="M57.49,11.31v3.22l-.52.08-6.73,1.06c-2.2.36-4.63.76-7.18,1.16l-6.6,1.07-8.68,1.41-5,.82h0l-8,1.29-5.61.9-2.87.44a3.82,3.82,0,0,1-.82,0,2.26,2.26,0,0,1,.25-.29,3.75,3.75,0,0,1,.45-.44,1.25,1.25,0,0,1,.19-.15,1.94,1.94,0,0,1,.27-.21c.76-.55,1.55-1.05,2.35-1.55s1.55-.91,2.35-1.34,1.49-.76,2.26-1.12h0l.21,0L22,16.33h0l4.77-.78,9.07-1.48,6.85-1.13,7.6-1.24,6.81-1.12a.46.46,0,0,1,.18.13A.85.85,0,0,1,57.49,11.31Z"/></g></g></svg>