<svg id="Layer_1" data-name="Layer 1" xmlns="http://www.w3.org/2000/svg" viewBox="0 0 500 500"><defs><style>.cls-1{fill:#fd2e48;}</style></defs><path class="cls-1" d="M250,0C111.93,0,0,111.94,0,250S111.93,500,250,500,500,388.07,500,250,388.07,0,250,0Zm0,470.5C128.22,470.5,29.5,371.78,29.5,250S128.22,29.51,250,29.51,470.5,128.22,470.5,250,371.78,470.5,250,470.5Z"/><path class="cls-1" d="M119.09,313.3a10.57,10.57,0,0,0,1,1.89l-.1.1A15.79,15.79,0,0,1,119.09,313.3Z"/><path class="cls-1" d="M119.09,313.3a10.57,10.57,0,0,0,1,1.89l-.1.1A15.79,15.79,0,0,1,119.09,313.3Z"/><path class="cls-1" d="M443.92,250.24A194,194,0,0,1,410,359.91c-.5.59-.89,1.28-1.39,1.88l-.1-.3L379.76,315l-35.59-57.61-20.23-32.72-40.35,53-79.33-95.69L155.58,259l-35.5,56.22a10.57,10.57,0,0,1-1-1.89,15.79,15.79,0,0,0,.89,2l.1-.1v.1l-29.15,46.5a22.25,22.25,0,0,1-1.2-2,192.87,192.87,0,0,1-34-109.57c0-107.29,87-194.15,194.14-194.15S443.92,143,443.92,250.24Z"/><polygon class="cls-1" points="249.82 268.43 233.51 278.95 220.05 249.12 202.31 242.67 204.92 213.23 249.82 268.43"/><polygon class="cls-1" points="351.49 296.89 337.55 303.47 330.08 278.56 316.78 271.65 321.93 248.71 351.49 296.89"/></svg>