<svg xmlns="http://www.w3.org/2000/svg" viewBox="0 0 80 80"><defs><style>.cls-1{fill:#ab2e1f;}</style></defs><g id="Layer_2" data-name="Layer 2"><g id="Layer_1-2" data-name="Layer 1"><path class="cls-1" d="M40,15.21A38.5,38.5,0,0,1,43,9a19.43,19.43,0,0,1,33.29.89c5.63,9.8,4.39,19.49-1.06,28.9-2.73,4.72-6.6,8.5-10.32,12.4-6.26,6.56-13,12.66-18.46,20-2,2.68-3.88,5.42-5.75,8.17-.6.88-.94.9-1.49,0-6.76-11-16-19.73-24.85-28.83-5-5.08-9.77-10.26-12.34-17.11C-1,25.22-.84,17.21,3.73,9.71c4-6.6,10-10.15,17.83-9.63s13.54,4.54,17,11.75C39,12.86,39.44,13.92,40,15.21Z"/></g></g></svg>